<svg width="98" height="47" viewBox="0 0 98 47" fill="none" xmlns="http://www.w3.org/2000/svg">
<path d="M51.5958 30.5V20.8869H53.4222L53.5184 22.5019C53.8516 21.8867 54.2938 21.4317 54.845 21.1369C55.4089 20.8421 56.005 20.6947 56.633 20.6947C57.3252 20.6947 57.9596 20.8549 58.5364 21.1753C59.126 21.4829 59.5682 21.9508 59.863 22.5788C60.0681 22.1559 60.3501 21.8034 60.709 21.5214C61.0678 21.2394 61.4652 21.0343 61.901 20.9062C62.3368 20.7652 62.7661 20.6947 63.1891 20.6947C63.8044 20.6947 64.3811 20.8228 64.9195 21.0792C65.4578 21.3355 65.8936 21.7265 66.2269 22.252C66.5601 22.7775 66.7267 23.4504 66.7267 24.2707V30.5H64.6695V24.5976C64.6695 23.8157 64.4837 23.2518 64.112 22.9057C63.7403 22.5596 63.266 22.3866 62.6892 22.3866C62.2406 22.3866 61.8241 22.4955 61.4395 22.7134C61.0678 22.9313 60.7666 23.2582 60.5359 23.694C60.3052 24.1169 60.1898 24.6424 60.1898 25.2705V30.5H58.1327V24.5976C58.1327 23.8157 57.9468 23.2518 57.5751 22.9057C57.2034 22.5596 56.7291 22.3866 56.1524 22.3866C55.7678 22.3866 55.3833 22.4891 54.9988 22.6942C54.6143 22.8993 54.2938 23.2197 54.0375 23.6555C53.7811 24.0913 53.653 24.6681 53.653 25.3859V30.5H51.5958Z" fill="white"/>
<path d="M70.4031 19.2719C69.9545 19.2719 69.6084 19.163 69.3649 18.9451C69.1342 18.7144 69.0188 18.394 69.0188 17.9838C69.0188 17.5736 69.1342 17.2596 69.3649 17.0417C69.6084 16.8238 69.9545 16.7149 70.4031 16.7149C70.8389 16.7149 71.1722 16.8238 71.4029 17.0417C71.6464 17.2596 71.7682 17.5736 71.7682 17.9838C71.7682 18.394 71.6464 18.7144 71.4029 18.9451C71.1722 19.163 70.8389 19.2719 70.4031 19.2719ZM71.4221 20.8869V30.5H69.3649V20.8869H71.4221Z" fill="white"/>
<path d="M73.5449 30.5V29.0773L78.1977 23.6555L79.3705 22.4635L77.6978 22.5019H73.5834V20.8869H81.6391V22.3097L76.9864 27.7314L75.8329 28.9235L77.6593 28.885H81.8122V30.5H73.5449Z" fill="white"/>
<path d="M84.8941 19.2719C84.4455 19.2719 84.0994 19.163 83.8559 18.9451C83.6251 18.7144 83.5098 18.394 83.5098 17.9838C83.5098 17.5736 83.6251 17.2596 83.8559 17.0417C84.0994 16.8238 84.4455 16.7149 84.8941 16.7149C85.3299 16.7149 85.6631 16.8238 85.8938 17.0417C86.1374 17.2596 86.2591 17.5736 86.2591 17.9838C86.2591 18.394 86.1374 18.7144 85.8938 18.9451C85.6631 19.163 85.3299 19.2719 84.8941 19.2719ZM85.913 20.8869V30.5H83.8559V20.8869H85.913Z" fill="white"/>
<path d="M92.9962 25.5781L93.4384 25.2705L94.045 24.6503L93.6884 24.1169L92.1503 25.2897L92.6059 25.9834L92.9962 25.5781Z" fill="white"/>
<path d="M89.9585 26.3664L89.9777 28.712L90.7083 27.9535V25.5949L89.9585 26.3664Z" fill="white"/>
<path fill-rule="evenodd" clip-rule="evenodd" d="M94.045 24.6503L97.7259 20.8869H95.2841L90.7083 25.5949V16.5611H88.6511V30.5H90.7083V27.9535L92.6059 25.9834L92.1503 25.2897L93.6884 24.1169L94.045 24.6503ZM90.7083 27.9535L89.9777 28.712L89.9585 26.3664L90.7083 25.5949V27.9535Z" fill="white"/>
<path d="M93.4384 25.2705L92.9962 25.5781L92.6059 25.9834L95.5725 30.5H97.9566L94.045 24.6503L93.4384 25.2705Z" fill="white"/>
<path d="M31.5414 16.896L36.7256 25.8901C37.7073 27.5932 37.1224 29.7696 35.4193 30.7513C33.7162 31.733 31.5397 31.1481 30.5581 29.445L25.3739 20.451C24.3922 18.7478 24.9771 16.5714 26.6802 15.5897C28.3833 14.608 30.5598 15.1929 31.5414 16.896Z" fill="#FF7657"/>
<path d="M20.7771 16.941L25.9769 25.9621C26.958 27.6642 26.3735 29.8394 24.6714 30.8204C22.9693 31.8015 20.7942 31.217 19.8131 29.5149L14.6133 20.4938C13.6322 18.7917 14.2167 16.6165 15.9188 15.6355C17.6209 14.6544 19.7961 15.2389 20.7771 16.941Z" fill="#FF7657"/>
<path fill-rule="evenodd" clip-rule="evenodd" d="M23.5 47C36.4787 47 47 36.4787 47 23.5C47 10.5213 36.4787 0 23.5 0C10.5213 0 0 10.5213 0 23.5C0 36.4787 10.5213 47 23.5 47ZM36.7256 25.8901L31.5414 16.896C30.5598 15.1929 28.3833 14.608 26.6802 15.5897C24.9771 16.5714 24.3922 18.7478 25.3739 20.451L30.5581 29.445C31.5397 31.1481 33.7162 31.733 35.4193 30.7513C37.1224 29.7696 37.7073 27.5932 36.7256 25.8901ZM20.7771 16.941L25.9769 25.9621C26.958 27.6642 26.3735 29.8394 24.6714 30.8204C22.9693 31.8015 20.7942 31.217 19.8131 29.5149L14.6133 20.4938C13.6322 18.7917 14.2167 16.6165 15.9188 15.6355C17.6209 14.6544 19.7961 15.2389 20.7771 16.941ZM13 31C14.6569 31 16 29.6569 16 28C16 26.3431 14.6569 25 13 25C11.3431 25 10 26.3431 10 28C10 29.6569 11.3431 31 13 31Z" fill="white"/>
<path d="M16 28C16 29.6569 14.6569 31 13 31C11.3431 31 10 29.6569 10 28C10 26.3431 11.3431 25 13 25C14.6569 25 16 26.3431 16 28Z" fill="#FF7657"/>
</svg>
